<svg xmlns="http://www.w3.org/2000/svg" viewBox="0 0 64 64" width="512" height="512">
  <rect width="64" height="64" rx="14" fill="#c16141"/>
  <g fill="#f5edd3" transform="translate(32 32) scale(0.48) translate(-52.51 -59.26)">
    <path d="M58.7,40.35l24.64-27.36c.54-.6,1.49.05,1.13.77l-16.58,32.87c-.26.51.18,1.1.75.99l32.42-6.32c.76-.15,1.15.89.48,1.27l-27.71,15.96c-.48.28-.45.98.05,1.22l28.04,13.29c.72.34.39,1.42-.4,1.3l-34.65-5.08c-.58-.08-.99.54-.69,1.04l17.59,28.61c.42.69-.48,1.42-1.06.86l-22.96-22.03c-.41-.39-1.09-.15-1.16.41l-3.96,32.38c-.1.78-1.22.82-1.36.04l-5.76-32.08c-.1-.56-.81-.77-1.19-.34l-24.64,27.36c-.54.6-1.49-.05-1.13-.77l16.58-32.87c.26-.51-.18-1.1-.75-.99l-32.42,6.32c-.76.15-1.15-.89-.48-1.27l27.71-15.96c.48-.28.45-.98-.05-1.22L3.09,45.47c-.72-.34-.39-1.42.4-1.3l34.65,5.08c.58.08.99-.54.69-1.04l-17.59-28.61c-.42-.69.48-1.42,1.06-.86l22.96,22.03c.41.39,1.09.15,1.16-.41l3.96-32.38c.1-.78,1.22-.82,1.36-.04l5.76,32.08c.1.56.81.77,1.19.34Z"/>
  </g>
</svg>
