<svg xmlns="http://www.w3.org/2000/svg" viewBox="0 0 64 64" width="512" height="512">
  <rect width="64" height="64" rx="14" fill="#c16141"/>
  <g fill="#f5edd3" transform="translate(32 32) scale(0.48) translate(-52.5 -59.26)">
    <path d="M60.75,45.25l25.6-19.31c.55-.42,1.26.27.85.83l-18.77,26c-.27.37-.04.89.41.95l32.16,4.45c.69.09.7,1.08.01,1.19l-32.1,5.12c-.44.07-.65.58-.4.94l15,21.35c.38.55-.27,1.22-.83.85l-21.65-14.55c-.37-.25-.87-.02-.93.42l-4.37,32.28c-.09.69-1.08.7-1.19.02l-5.2-32.16c-.07-.45-.6-.66-.96-.39l-25.6,19.31c-.55.42-1.26-.27-.85-.83l18.76-25.99c.27-.37.04-.89-.41-.95l-35.8-4.46c-.7-.09-.71-1.1-.01-1.2l35.73-5.13c.45-.06.67-.58.41-.94l-14.99-21.33c-.38-.55.27-1.22.83-.85l21.65,14.54c.37.25.88.02.93-.42l4.37-33.99c.09-.69,1.09-.7,1.19-.01l5.21,33.86c.07.45.59.66.96.39Z"/>
  </g>
</svg>
