<svg width="64" height="64" viewBox="0 0 64 64" xmlns="http://www.w3.org/2000/svg">
  <rect width="64" height="64" rx="14" fill="#c16141"/>
  <g fill="#f5edd3" transform="translate(32 32) scale(0.44) translate(-52.5 -59.26)">
    <path d="M57.7,43.49l27.2-32.6c.46-.55,1.32.04.97.67l-20.55,37.15c-.25.45.16.98.66.86l37.4-9.01c.68-.16,1.03.79.41,1.1l-33.5,16.96c-.45.23-.43.88.04,1.07l33.56,14.01c.66.27.36,1.26-.34,1.13l-36.59-7.24c-.5-.1-.88.44-.62.88l19.69,33.27c.36.61-.45,1.22-.94.71l-26.51-27.77c-.35-.37-.98-.15-1.02.36l-2.96,37.88c-.06.71-1.08.74-1.18.03l-5.07-37.64c-.07-.51-.71-.7-1.04-.3l-27.2,32.6c-.46.55-1.32-.04-.97-.67l20.55-37.15c.25-.45-.16-.98-.66-.86L1.62,77.95c-.68.16-1.03-.79-.41-1.1l33.5,16.96c-.45.23-.43.88.04,1.07L1.11,44.81c-.66-.27-.36-1.26.34-1.13l36.59,7.24c.5.1.88-.44.62-.88L18.98,16.78c-.36-.61.45-1.22.94-.71l26.51,27.77c.35.37.98.15,1.02-.36l2.96-37.88c.06-.71,1.08-.74,1.18-.03l5.07,37.64c.07.51.71.7,1.04.3Z"/>
  </g>
</svg>
